#!OML:ASF I:\Actors\actors\Patient Classification 1\Patient 1\Session 1\Subject1.ASF
:FULLY-SPECIFIED
:DEGREES
1031
root 1.0771 17.4822 9.19842 7.44205 -0.197161 -7.02296
lowerback -1.40786 1.07065 8.68556
upperback -7.99772 1.76558 1.15264
thorax -7.4462 0.345921 -3.71827
lowerneck -10.9328 4.12107 4.29409
upperneck 24.8342 4.05032 3.4543
head 9.68978 2.68235 0.94422
rclavicle -4.96962e-015 3.77691e-015
rhumerus -78.9216 28.5551 -97.2127
rradius 122.47
rwrist -14.7496
rhand 66.2063 -65.0862
rfingers 7.12502
rthumb 74.732 -369.871
lclavicle -4.96962e-015 3.77691e-015
lhumerus -9.84354 20.8362 81.1609
lradius 119.016
lwrist 49.4651
lhand -13.7699 -5.47689
lfingers 7.12502
lthumb 12.3509 24.1383
rfemur -2.90621 24.3437 22.6579
rtibia 4.90132
rfoot -14.5157 -27.5414
rtoes 3.82345
lfemur 6.87921 -42.285 -16.9847
ltibia -5.16316
lfoot -18.1858 50.1009
ltoes 11.6085
1032
root 1.0781 17.4819 9.20055 7.4491 -0.263703 -6.99139
lowerback -1.3246 1.06092 8.80836
upperback -8.00382 1.76622 1.16223
thorax -7.50142 0.335773 -3.77822
lowerneck -10.9388 4.11661 4.13553
upperneck 24.8152 4.06512 3.50401
head 9.67782 2.67963 0.988955
rclavicle 1.17283e-014 -8.44835e-015
rhumerus -78.8522 28.4985 -97.1972
rradius 122.417
rwrist -14.804
rhand 66.3023 -65.0586
rfingers 7.12502
rthumb 74.7147 -369.498
lclavicle 1.17283e-014 -8.44835e-015
lhumerus -10.7055 23.4102 80.8848
lradius 117.943
lwrist 49.9126
lhand -13.8957 -5.38512
lfingers 7.12502
lthumb 12.2296 24.2373
rfemur -2.9093 24.4359 22.6148
rtibia 4.90513
rfoot -14.5618 -27.55
rtoes 3.98484
lfemur 6.9504 -42.3708 -17.0885
ltibia -5.17957
lfoot -18.2477 50.2527
ltoes 11.6782
1033
root 1.07928 17.4817 9.20246 7.45543 -0.30372 -6.92676
lowerback -1.24853 1.05956 8.89448
upperback -8.00628 1.77393 1.13373
thorax -7.54653 0.330569 -3.85835
lowerneck -10.8947 4.09159 4.02097
upperneck 24.7485 4.02984 3.6149
head 9.63962 2.66355 1.0394
rclavicle 7.57867e-016 -3.99557e-014
rhumerus -78.7882 28.3568 -97.2249
rradius 122.374
rwrist -14.823
rhand 66.2618 -65.1225
rfingers 7.12502
rthumb 74.7221 -369.708
lclavicle 7.57867e-016 -3.99557e-014
lhumerus -11.702 25.6829 80.4594
lradius 117.084
lwrist 50.5633
lhand -14.4892 -4.9634
lfingers 7.12502
lthumb 11.6574 24.6923
rfemur -2.90467 24.4836 22.5268
rtibia 4.88525
rfoot -14.6277 -27.5413
rtoes 4.23536
lfemur 6.98595 -42.4273 -17.2069
ltibia -5.17256
lfoot -18.3308 50.3382
ltoes 11.7659
1034
root 1.08113 17.4815 9.20498 7.47618 -0.306802 -6.83216
lowerback -1.20033 1.03099 8.90411
upperback -8.02542 1.74139 1.11487
thorax -7.59967 0.31012 -3.88344
lowerneck -10.7897 4.07331 4.05373
upperneck 24.7213 4.0202 3.54763
head 9.61229 2.65358 1.0062
rclavicle -1.21134e-014 -4.86029e-014
rhumerus -78.7834 28.2353 -97.3123
rradius 122.366
rwrist -14.8146
rhand 65.998 -65.1244
rfingers 7.12502
rthumb 74.7676 -370.663
lclavicle -1.21134e-014 -4.86029e-014
lhumerus -12.9051 27.8084 79.9713
lradius 116.553
lwrist 51.6468
lhand -15.7509 -4.10378
lfingers 7.12502
lthumb 10.4404 25.617
rfemur -2.89569 24.5188 22.3973
rtibia 4.83066
rfoot -14.7047 -27.5619
rtoes 4.51017
lfemur 6.97186 -42.4828 -17.3269
ltibia -5.16745
lfoot -18.3058 50.4132
ltoes 11.6866
1035
root 1.08371 17.4806 9.20801 7.50307 -0.314236 -6.786
lowerback -1.1584 0.993997 8.93736
upperback -8.05277 1.70012 1.12836
thorax -7.66038 0.284481 -3.88672
lowerneck -10.7598 4.06395 4.17411
upperneck 24.8299 4.03274 3.33958
head 9.65316 2.64892 0.917457
rclavicle 1.25483e-014 -1.96797e-014
rhumerus -78.6727 28.1349 -97.1656
rradius 122.281
rwrist -14.3909
rhand 67.1697 -64.9761
rfingers 7.12502
rthumb 74.5328 -366.331
lclavicle 1.25483e-014 -1.96797e-014
lhumerus -14.2239 29.8076 79.4913
lradius 116.306
lwrist 53.1523
lhand -17.5435 -2.99477
lfingers 7.12502
lthumb 8.71085 26.8055
rfemur -2.90594 24.5445 22.321
rtibia 4.79985
rfoot -14.7167 -27.5762
rtoes 4.5595
lfemur 6.98251 -42.5652 -17.4034
ltibia -5.19855
lfoot -18.1728 50.5411
ltoes 11.4366
1036
root 1.08697 17.4793 9.21187 7.52845 -0.372252 -6.77907
lowerback -1.15433 0.995737 9.0256
upperback -8.04442 1.70546 1.13491
thorax -7.65301 0.281911 -3.92905
lowerneck -10.8339 4.04413 4.2827
upperneck 24.9658 4.02063 3.15465
head 9.72283 2.63501 0.838885
rclavicle 6.50399e-015 3.83654e-014
rhumerus -78.3311 27.9675 -96.6966
rradius 122.078
rwrist -13.5558
rhand 69.9728 -64.6637
rfingers 7.12502
rthumb 73.6486 -356.671
lclavicle 6.50399e-015 3.83654e-014
lhumerus -15.4798 31.7081 79.1227
lradius 116.18
lwrist 54.6108
lhand -19.4191 -1.6397
lfingers 7.12502
lthumb 6.90062 28.2278
rfemur -2.94244 24.5368 22.2818
rtibia 4.81891
rfoot -14.6793 -27.5034
rtoes 4.43897
lfemur 7.01018 -42.5709 -17.4543
ltibia -5.21013
lfoot -18.0995 50.623
ltoes 11.2341
1037
root 1.09116 17.4786 9.21722 7.57937 -0.447855 -6.72794
lowerback -1.22709 1.01138 9.08319
upperback -8.00627 1.71681 1.12882
thorax -7.56662 0.288288 -3.96621
lowerneck -10.9282 4.02689 4.34768
upperneck 25.0464 4.01086 3.01127
head 9.77449 2.6218 0.781288
rclavicle -2.34877e-014 -2.43511e-015
rhumerus -78.0402 27.846 -96.3796
rradius 121.975
rwrist -13.1588
rhand 71.344 -64.5483
rfingers 7.12502
rthumb 73.0672 -352.399
lclavicle -2.34877e-014 -2.43511e-015
lhumerus -16.7164 33.5822 78.7955
lradius 116.089
lwrist 55.7974
lhand -20.8865 -0.468308
lfingers 7.12502
lthumb 5.48396 29.4407
rfemur -2.99374 24.5209 22.179
rtibia 4.82722
rfoot -14.636 -27.4197
rtoes 4.29534
lfemur 6.9836 -42.5386 -17.5395
ltibia -5.16429
lfoot -18.2795 50.6442
ltoes 11.4366
1038
root 1.0952 17.4786 9.22251 7.65223 -0.521824 -6.67422
lowerback -1.30462 1.00991 9.12511
upperback -7.98685 1.7058 1.13158
thorax -7.50155 0.283543 -3.98423
lowerneck -11.1555 4.0336 4.16819
upperneck 25.2893 4.00167 3.1619
head 9.89641 2.62186 0.873236
rclavicle 2.60905e-015 3.71479e-014
rhumerus -77.9573 27.7951 -96.3514
rradius 121.994
rwrist -13.235
rhand 71.1111 -64.5922
rfingers 7.12502
rthumb 73.1722 -353.128
lclavicle 2.60905e-015 3.71479e-014
lhumerus -18.0468 35.4201 78.3469
lradius 115.926
lwrist 56.7694
lhand -21.6467 0.306719
lfingers 7.12502
lthumb 4.74991 30.2335
rfemur -3.05378 24.5552 22.0714
rtibia 4.80736
rfoot -14.6034 -27.402
rtoes 4.26339
lfemur 6.96227 -42.5943 -17.6195
ltibia -5.15317
lfoot -18.6374 50.7082
ltoes 12.015
1039
root 1.09871 17.4782 9.22693 7.7162 -0.603737 -6.68414
lowerback -1.35914 1.0258 9.22729
upperback -7.97684 1.72283 1.13029
thorax -7.45633 0.287388 -4.0418
lowerneck -11.2796 4.04367 4.06194
upperneck 25.5564 3.97547 3.35685
head 10.0094 2.62623 0.964984
rclavicle 1.11475e-014 5.64051e-015
rhumerus -77.9257 27.6784 -96.3466
rradius 122.018
rwrist -13.3193
rhand 70.95 -64.6302
rfingers 7.12502
rthumb 73.2434 -353.645
lclavicle 1.11475e-014 5.64051e-015
lhumerus -19.4123 37.1067 77.7801
lradius 115.66
lwrist 57.7182
lhand -21.8546 1.20682
lfingers 7.12502
lthumb 4.54917 31.138
rfemur -3.12298 24.5883 22.0366
rtibia 4.78554
rfoot -14.535 -27.3799
rtoes 4.20249
lfemur 6.96556 -42.6447 -17.62
ltibia -5.18683
lfoot -18.8562 50.7771
ltoes 12.334
1040
root 1.10208 17.4776 9.23074 7.76161 -0.702174 -6.69511
lowerback -1.39188 1.05978 9.3289
upperback -7.95642 1.76527 1.11984
thorax -7.40841 0.303975 -4.11026
lowerneck -11.3906 4.06329 4.00862
upperneck 25.7446 3.99306 3.40185
head 10.0964 2.63762 0.998955
rclavicle -1.30608e-014 1.06598e-014
rhumerus -77.8857 27.5433 -96.3032
rradius 122.052
rwrist -13.3551
rhand 70.9602 -64.7498
rfingers 7.12502
rthumb 73.239 -353.734
lclavicle -1.30608e-014 1.06598e-014
lhumerus -20.732 38.5645 77.1946
lradius 115.33
lwrist 58.7184
lhand -22.2562 1.93762
lfingers 7.12502
lthumb 4.16139 31.8767
rfemur -3.19216 24.5745 22.0032
rtibia 4.78784
rfoot -14.4541 -27.2984
rtoes 4.0798
lfemur 6.98106 -42.6817 -17.6398
ltibia -5.19598
lfoot -19.0103 50.87
ltoes 12.445
1041
root 1.10476 17.4774 9.23374 7.79529 -0.810384 -6.6698
lowerback -1.40082 1.0724 9.35943
upperback -7.94284 1.78143 1.13025
thorax -7.38617 0.311677 -4.11654
lowerneck -11.6023 3.97694 3.92947
upperneck 25.9498 3.86202 3.43328
head 10.2087 2.57649 1.01742
rclavicle -2.97245e-015 3.46631e-014
rhumerus -77.8996 27.5139 -96.2874
rradius 122.094
rwrist -13.3727
rhand 70.9067 -64.7564
rfingers 7.12502
rthumb 73.2624 -353.901
lclavicle -2.97245e-015 3.46631e-014
lhumerus -22.0729 39.8175 76.6132
lradius 114.996
lwrist 59.6222
lhand -23.3763 2.04941
lfingers 7.12502
lthumb 3.07966 32.0069
rfemur -3.25071 24.5743 21.935
rtibia 4.81019
rfoot -14.4419 -27.2011
rtoes 4.07931
lfemur 7.04097 -42.8084 -17.7457
ltibia -5.19989
lfoot -19.3853 51.0375
ltoes 12.9452
